<svg xmlns="http://www.w3.org/2000/svg" viewBox="0 0 19 20" width="19" height="20">
	<style>
		tspan { white-space:pre }
		.shp0 { fill: #171717 } 
	</style>
	<g id="PSDFreebies.com">
		<g id="Side Social Media Icon">
			<path id="insta" class="shp0" d="M13.57 0.82L5.17 0.82C2.32 0.82 0 3.2 0 6.11L0 14.71C0 17.63 2.32 20 5.17 20L13.57 20C16.43 20 18.75 17.63 18.75 14.71L18.75 6.11C18.75 3.2 16.43 0.82 13.57 0.82ZM17.09 14.71C17.09 16.69 15.51 18.3 13.58 18.3L5.17 18.3C3.24 18.3 1.66 16.69 1.66 14.71L1.66 6.11C1.66 4.13 3.24 2.52 5.17 2.52L13.57 2.52C15.51 2.52 17.09 4.13 17.09 6.11L17.09 14.71L17.09 14.71ZM9.37 5.47C6.71 5.47 4.54 7.69 4.54 10.41C4.54 13.14 6.71 15.35 9.37 15.35C12.04 15.35 14.21 13.14 14.21 10.41C14.21 7.69 12.04 5.47 9.37 5.47ZM9.37 13.65C7.63 13.65 6.21 12.2 6.21 10.41C6.21 8.62 7.63 7.17 9.37 7.17C11.12 7.17 12.54 8.62 12.54 10.41C12.54 12.2 11.12 13.65 9.37 13.65ZM14.41 4.03C14.09 4.03 13.77 4.16 13.55 4.39C13.32 4.62 13.19 4.95 13.19 5.27C13.19 5.6 13.32 5.92 13.55 6.16C13.77 6.39 14.09 6.52 14.41 6.52C14.73 6.52 15.04 6.39 15.27 6.16C15.5 5.92 15.63 5.6 15.63 5.27C15.63 4.95 15.5 4.62 15.27 4.39C15.04 4.16 14.73 4.03 14.41 4.03Z" />
		</g>
	</g>
</svg>