<svg xmlns="http://www.w3.org/2000/svg" viewBox="0 0 16 15" width="16" height="15">
	<style>
		tspan { white-space:pre }
		.shp0 { fill: #171717 } 
	</style>
	<g id="PSDFreebies.com">
		<g id="Header">
			<g id="Icons">
				<path id="search " class="shp0" d="M15.68 13.39L10.87 8.88C11.56 7.96 11.98 6.84 11.98 5.63C11.98 2.53 9.29 0.01 5.98 0.01C2.67 0.01 -0.01 2.53 -0.01 5.63C-0.01 8.73 2.67 11.25 5.98 11.25C7.28 11.25 8.47 10.86 9.45 10.21L14.26 14.72C14.46 14.9 14.71 15 14.97 15C15.23 15 15.48 14.9 15.68 14.72C16.07 14.35 16.07 13.76 15.68 13.39ZM9.24 7.79L8.84 8.31L8.29 8.68C7.61 9.14 6.81 9.38 5.98 9.38C3.78 9.38 1.99 7.7 1.99 5.63C1.99 3.56 3.78 1.88 5.98 1.88C8.19 1.88 9.98 3.56 9.98 5.63C9.98 6.41 9.72 7.16 9.24 7.79Z" />
			</g>
		</g>
	</g>
</svg>