<svg xmlns="http://www.w3.org/2000/svg" viewBox="0 0 11 11" width="11" height="11">
	<style>
		tspan { white-space:pre }
		.shp0 { fill: #000000 } 
	</style>
	<g id="PSDFreebies.com">
		<g id="Slider">
			<g id="Icons">
				<path id="Forma 1" class="shp0" d="M10.84 3.88C10.84 4.79 10.45 5.61 9.82 6.17L9.82 6.17L6.44 9.54C6.1 9.88 5.76 10.22 5.42 10.22C5.08 10.22 4.74 9.88 4.4 9.54L1.01 6.17L1.02 6.17C0.39 5.61 0 4.79 0 3.88C0 2.17 1.39 0.78 3.11 0.78C4.03 0.78 4.85 1.18 5.42 1.8C5.99 1.18 6.81 0.78 7.73 0.78C9.45 0.78 10.84 2.17 10.84 3.88Z" />
			</g>
		</g>
	</g>
</svg>