<svg xmlns="http://www.w3.org/2000/svg" viewBox="0 0 18 16" width="18" height="16">
	<style>
		tspan { white-space:pre }
		.shp0 { fill: #171717 } 
	</style>
	<g id="PSDFreebies.com">
		<g id="Side Social Media Icon">
			<path id="g+" class="shp0" d="M13.86 7.28L7.49 7.28L7.49 9.51L11.38 9.51C10.8 11.44 9.07 12.85 7.04 12.85C4.52 12.85 2.49 10.71 2.49 8.08C2.49 5.44 4.52 3.3 7.04 3.3C8.3 3.3 9.45 3.84 10.27 4.72L11.81 2.96C10.58 1.7 8.9 0.92 7.04 0.92C3.27 0.92 0.21 4.12 0.21 8.08C0.21 12.03 3.27 15.23 7.04 15.23C10.34 15.23 13.23 12.77 13.86 9.51L13.86 7.28L13.86 7.28L13.86 7.28ZM18 7.28L16.7 7.28L16.7 5.91L15.58 5.91L15.58 7.28L14.28 7.28L14.28 8.45L15.58 8.45L15.58 9.81L16.7 9.81L16.7 8.45L18 8.45L18 7.28Z" />
		</g>
	</g>
</svg>