<svg xmlns="http://www.w3.org/2000/svg" viewBox="0 0 18 15" width="18" height="15">
	<style>
		tspan { white-space:pre }
		.shp0 { fill: #171717 } 
	</style>
	<g id="PSDFreebies.com">
		<g id="Side Social Media Icon">
			<path id="tw" class="shp0" d="M16.89 0.65C16.21 1.07 15.47 1.37 14.68 1.53C14.04 0.83 13.14 0.39 12.14 0.39C10.22 0.39 8.67 2.01 8.67 4C8.67 4.29 8.7 4.56 8.76 4.83C5.87 4.68 3.31 3.24 1.59 1.05C1.29 1.58 1.12 2.2 1.12 2.87C1.12 4.12 1.74 5.23 2.67 5.88C2.1 5.86 1.56 5.69 1.09 5.42L1.09 5.47C1.09 7.22 2.29 8.68 3.88 9.01C3.59 9.1 3.28 9.14 2.97 9.14C2.74 9.14 2.52 9.12 2.31 9.07C2.75 10.51 4.04 11.56 5.56 11.59C4.37 12.56 2.87 13.13 1.24 13.13C0.96 13.13 0.68 13.12 0.41 13.08C1.95 14.11 3.78 14.71 5.74 14.71C12.13 14.71 15.63 9.2 15.63 4.42L15.62 3.95C16.3 3.44 16.89 2.81 17.35 2.08C16.73 2.37 16.06 2.57 15.36 2.65C16.08 2.21 16.63 1.5 16.89 0.65Z" />
		</g>
	</g>
</svg>