<svg xmlns="http://www.w3.org/2000/svg" viewBox="0 0 15 16" width="15" height="16">
	<style>
		tspan { white-space:pre }
		.shp0 { fill: #202020 } 
	</style>
	<g id="PSDFreebies.com">
		<g id="Header">
			<g id="Icons">
				<path id="cart" class="shp0" d="M14.04 5.45L12.6 5.45L12.6 7.22C12.79 7.43 12.91 7.7 12.91 8C12.91 8.64 12.38 9.16 11.74 9.16C11.09 9.16 10.57 8.64 10.57 8C10.57 7.66 10.72 7.35 10.95 7.14L10.95 5.45L4.23 5.45L4.23 7.17C4.44 7.38 4.57 7.67 4.57 8C4.57 8.64 4.05 9.16 3.4 9.16C2.76 9.16 2.23 8.64 2.23 8C2.23 7.67 2.36 7.38 2.58 7.17L2.58 5.45L0.96 5.45C0.43 5.45 0 5.88 0 6.4L0 15.05C0 15.57 0.43 16 0.96 16L14.04 16C14.57 16 15 15.57 15 15.05L15 6.4C15 5.88 14.57 5.45 14.04 5.45ZM11.78 8.48C11.51 8.48 11.3 8.26 11.3 8L11.3 4.64C11.3 2.61 9.63 0.96 7.59 0.96C5.55 0.96 3.88 2.61 3.88 4.64L3.88 8C3.88 8.26 3.67 8.48 3.4 8.48C3.14 8.48 2.92 8.26 2.92 8L2.92 4.64C2.92 2.08 5.02 0 7.59 0C10.17 0 12.26 2.08 12.26 4.64L12.26 8C12.26 8.26 12.05 8.48 11.78 8.48Z" />
			</g>
		</g>
	</g>
</svg>