<svg xmlns="http://www.w3.org/2000/svg" viewBox="0 0 12 13" width="12" height="13">
	<style>
		tspan { white-space:pre }
		.shp0 { fill: #000000 } 
	</style>
	<g id="PSDFreebies.com">
		<g id="Slider">
			<g id="Icons">
				<path id="Forma 1" class="shp0" d="M9.61 8.17C9.04 8.17 8.54 8.41 8.18 8.8L3.96 6.7C3.98 6.6 3.99 6.5 3.99 6.39C3.99 6.29 3.98 6.19 3.96 6.1L8.17 4.02C8.53 4.41 9.04 4.65 9.61 4.65C10.7 4.65 11.59 3.75 11.59 2.63C11.59 1.51 10.7 0.61 9.61 0.61C8.52 0.61 7.63 1.51 7.63 2.63C7.63 2.73 7.64 2.83 7.65 2.92L3.44 5.01C3.08 4.62 2.57 4.37 2.01 4.37C0.91 4.37 0.03 5.28 0.03 6.39C0.03 7.51 0.91 8.41 2.01 8.41C2.57 8.41 3.08 8.17 3.44 7.78L7.65 9.89C7.64 9.99 7.63 10.09 7.63 10.19C7.63 11.31 8.52 12.21 9.61 12.21C10.7 12.21 11.59 11.31 11.59 10.19C11.59 9.08 10.7 8.17 9.61 8.17Z" />
			</g>
		</g>
	</g>
</svg>